<svg width="32" height="32" viewBox="0 0 32 32" fill="none" xmlns="http://www.w3.org/2000/svg">
<path d="M27.8261 25.0436V11.8262H4.17392V25.0436C4.17392 26.5803 5.38414 27.8262 6.87702 27.8262H25.123C26.6159 27.8262 27.8261 26.5803 27.8261 25.0436Z" fill="#A56644"/>
<path d="M2.78262 6.95644C2.78262 5.41964 4.02844 4.17383 5.56523 4.17383H11.8261V11.826H2.78262V6.95644Z" fill="#EA2B2B"/>
<path d="M2.78262 11.8262H11.8261V12.174C11.8261 14.6713 9.80168 16.6957 7.30436 16.6957C4.80708 16.6957 2.78262 14.6713 2.78262 12.174V11.8262Z" fill="#FF4945"/>
<path d="M11.8261 11.8262H20.1739V12.174C20.1739 14.6713 18.3052 16.6957 16 16.6957C13.6948 16.6957 11.8261 14.6713 11.8261 12.174V11.8262Z" fill="white"/>
<path d="M20.1739 11.8262H29.2174V12.174C29.2174 14.6713 27.193 16.6957 24.6957 16.6957C22.1983 16.6957 20.1739 14.6713 20.1739 12.174V11.8262Z" fill="#FF4945"/>
<path d="M11.8261 4.17383H20.1739V11.826H11.8261V4.17383Z" fill="#D0D0D0"/>
<path d="M20.1739 4.17383H26.4348C27.9716 4.17383 29.2174 5.41964 29.2174 6.95644V11.826H20.1739V4.17383Z" fill="#EA2B2B"/>
<path d="M7.65216 20.8696C7.65216 20.1012 8.27505 19.4783 9.04347 19.4783H12.5217C13.2901 19.4783 13.913 20.1012 13.913 20.8696V27.8261H7.65216V20.8696Z" fill="#B9E8FF"/>
<path d="M16.6956 20.8696C16.6956 20.1012 17.3185 19.4783 18.087 19.4783H23.6522C24.4206 19.4783 25.0435 20.1012 25.0435 20.8696V23.6522C25.0435 24.4206 24.4206 25.0435 23.6522 25.0435H18.087C17.3185 25.0435 16.6956 24.4206 16.6956 23.6522V20.8696Z" fill="#B9E8FF"/>
</svg>
