<svg width="129" height="30" viewBox="0 0 129 30" fill="none" xmlns="http://www.w3.org/2000/svg">
<g clip-path="url(#clip0_401_1359)">
<path d="M111.225 14.9999C111.225 10.2564 114.84 6.91328 119.628 6.91328C124.417 6.91328 128.031 10.2564 128.031 14.9999C128.031 19.6532 124.417 23.0866 119.628 23.0866C114.84 23.0866 111.225 19.6983 111.225 14.9999ZM123.288 14.9999C123.288 12.7863 121.887 11.1599 119.674 11.1599C117.46 11.1599 116.059 12.7863 116.059 14.9999C116.059 17.2136 117.46 18.84 119.674 18.84C121.887 18.84 123.288 17.2588 123.288 14.9999ZM108.063 11.2503C108.379 11.8827 108.515 12.5604 108.515 13.2832C108.515 14.9999 107.611 16.5811 106.166 17.8009C108.153 18.7496 109.328 21.0536 109.328 23.2221C109.328 27.288 106.03 29.9987 101.015 29.9987C96.0009 29.9987 92.7029 27.3332 92.7029 23.2221C92.7029 21.0085 93.8775 18.7948 95.8653 17.8009C94.3745 16.5811 93.5161 14.9999 93.5161 13.2832C93.5161 9.71425 96.3171 7.09399 100.744 7.09399C103.365 7.09399 104.133 7.54576 105.624 7.54576C106.617 7.54576 107.295 7.41023 108.515 6.77775C108.921 6.55187 109.238 6.46151 109.509 6.46151C110.096 6.46151 110.412 7.04881 110.412 7.77164C110.457 9.35283 109.735 10.663 108.063 11.2503ZM104.675 23.0866C104.675 21.2795 103.274 20.0146 101.061 20.0146C98.847 20.0146 97.4465 21.2343 97.4465 23.0866C97.4465 24.8033 98.9825 26.1586 101.061 26.1586C103.094 26.1586 104.675 24.8033 104.675 23.0866ZM98.1242 13.5543C98.1242 15.0903 99.4343 16.3101 101.015 16.3101C102.642 16.3101 103.907 15.0903 103.907 13.5543C103.907 11.9279 102.732 10.7985 101.015 10.7985C99.3439 10.7985 98.1242 11.8827 98.1242 13.5543ZM90.5344 15.3162V20.9633C90.5344 22.0475 90.1279 22.4993 88.9533 22.4993H87.3721C86.1975 22.4993 85.7909 22.0475 85.7909 20.9633V15.4517C85.7909 14.0512 85.565 13.0573 85.0681 12.4249C84.5259 11.7472 83.7127 11.3858 82.6737 11.3858C81.6798 11.3858 80.7762 11.7472 80.1889 12.4249C79.6468 13.0573 79.2854 14.0512 79.2854 15.4065V20.9181C79.2854 22.0475 78.8336 22.4541 77.7042 22.4541H76.123C75.0388 22.4541 74.5418 22.0475 74.5418 20.9181V8.26859C74.5418 7.54576 74.9033 7.22952 75.4454 7.22952C76.2586 7.22952 77.388 7.90717 78.2463 9.2173C79.5113 7.72647 81.4539 6.95846 83.3513 6.95846C85.6553 6.95846 87.5076 7.77164 88.7274 9.12695C89.9472 10.5274 90.5344 12.3345 90.5344 15.3162ZM65.8679 2.5763C65.8679 1.13064 67.0425 0.0012207 68.5785 0.0012207C70.0242 0.0012207 71.2891 1.13064 71.2891 2.5763C71.2891 3.97679 70.0242 5.15138 68.5785 5.15138C67.0425 5.15138 65.8679 3.97679 65.8679 2.5763ZM66.1841 20.9633V9.08177C66.1841 7.99753 66.5907 7.54576 67.7653 7.54576H69.3465C70.5211 7.54576 70.9277 7.99753 70.9277 9.08177V20.9633C70.9277 22.0475 70.5211 22.4993 69.3465 22.4993H67.7653C66.5907 22.4993 66.1841 22.0475 66.1841 20.9633ZM57.8264 20.9633V6.05492C57.8264 2.30524 59.9497 0.181928 61.6664 0.181928C62.2086 0.181928 62.57 0.543343 62.57 1.221V20.9181C62.57 22.0475 62.1182 22.4541 60.9888 22.4541H59.4076C58.3233 22.4993 57.8264 22.0927 57.8264 20.9633ZM38.31 14.9999C38.31 10.2564 41.9241 6.91328 46.7129 6.91328C51.5016 6.91328 55.1158 10.2564 55.1158 14.9999C55.1158 19.6532 51.5016 23.0866 46.7129 23.0866C41.9241 23.0866 38.31 19.6983 38.31 14.9999ZM50.327 14.9999C50.327 12.7863 48.9266 11.1599 46.7129 11.1599C44.4992 11.1599 43.0987 12.7863 43.0987 14.9999C43.0987 17.2136 44.4992 18.84 46.7129 18.84C48.9266 18.84 50.327 17.2588 50.327 14.9999ZM35.8704 9.08177V21.7313C35.8704 22.4541 35.509 22.7704 34.9669 22.7704C34.1537 22.7704 33.0243 22.0927 32.2111 20.8278C31.0365 22.2282 29.2294 23.0414 27.1965 23.0414C25.1635 23.0414 23.5372 22.3186 22.3174 21.2344C20.9169 19.879 20.1489 17.8009 20.1489 14.8192V9.08177C20.1489 7.99753 20.5555 7.54576 21.7301 7.54576H23.3113C24.4859 7.54576 24.8925 7.99753 24.8925 9.08177V14.4126C24.8925 16.2197 25.2087 17.1684 25.796 17.8009C26.2929 18.343 27.0158 18.6141 27.9193 18.6141C28.8228 18.6141 29.6812 18.2527 30.1782 17.6654C30.7655 17.0329 31.0817 16.039 31.0817 14.503V9.08177C31.0817 7.95235 31.5335 7.54576 32.6629 7.54576H34.2441C35.3735 7.50058 35.8704 7.95235 35.8704 9.08177ZM16.8962 1.221V21.7313C16.8962 22.4541 16.5347 22.7704 15.9926 22.7704C15.1794 22.7704 14.05 22.0927 13.2368 20.8729C12.2429 22.0475 10.21 23.0866 7.86078 23.0866C3.16238 23.0866 0 19.6532 0 14.9999C0 10.4371 3.20756 6.91328 7.86078 6.91328C9.5775 6.91328 11.0683 7.4554 12.1978 8.22341V6.05492C12.1978 2.30524 14.3211 0.181928 16.0378 0.181928C16.5799 0.181928 16.8962 0.543343 16.8962 1.221ZM12.1978 14.9999C12.1978 12.6959 10.5714 11.1599 8.53843 11.1599C6.46029 11.1599 4.83393 12.6959 4.83393 14.9999C4.83393 17.304 6.46029 18.84 8.53843 18.84C10.5714 18.84 12.1978 17.3491 12.1978 14.9999Z" fill="#58CC02"/>
</g>
<defs>
<clipPath id="clip0_401_1359">
<rect width="128.031" height="30" fill="white"/>
</clipPath>
</defs>
</svg>
